<svg xmlns="http://www.w3.org/2000/svg" xmlns:xlink="http://www.w3.org/1999/xlink" width="27" height="25" viewBox="0 0 27 25"><defs><path id="a" d="M715 35h20a2 2 0 1 1 0 4h-20a2 2 0 0 1 0-4z"/><path id="b" d="M715 44h20a2 2 0 1 1 0 4h-20a2 2 0 0 1 0-4z"/><path id="c" d="M715 53h20a2 2 0 0 1 0 4h-20a2 2 0 0 1 0-4z"/></defs><g transform="translate(-711 -33)"><use fill="#fff" xlink:href="#a"/></g><g transform="translate(-711 -33)"><use fill="#fff" xlink:href="#b"/></g><g transform="translate(-711 -33)"><use fill="#fff" xlink:href="#c"/></g></svg>